<svg width="50" height="50" viewBox="0 0 50 50" fill="none" xmlns="http://www.w3.org/2000/svg">
<circle cx="25" cy="25" r="25" fill="black"/>
<circle cx="25" cy="25" r="22.7778" fill="white"/>
<g clip-path="url(#clip0_1_7)">
<path fill-rule="evenodd" clip-rule="evenodd" d="M25.2634 10C18.6015 10 13.0562 14.5336 11.8717 20.5247H12.9948C14.1278 15.2827 18.9018 11.2995 24.7007 11.0563V26.5317L18.4506 26.565L18.4508 26.5988C14.3956 26.6079 11.1111 29.7287 11.1111 33.5771C11.1111 37.4312 14.4052 40.5556 18.4686 40.5556C21.6972 40.5556 24.4401 38.5831 25.4308 35.8396C32.8788 35.7545 38.8889 30.003 38.8889 22.9203C38.8889 15.7846 32.7886 10 25.2634 10ZM25.7149 34.7929C32.4225 34.5675 37.7874 29.3392 37.7874 22.9226C37.7874 16.5413 32.4818 11.3354 25.8261 11.0563V20.5247H26.2168C28.3196 20.5247 30.0244 22.1411 30.0244 24.1351C30.0244 26.1291 28.3196 27.7454 26.2168 27.7454H25.8261V33.0248H25.8034C25.8184 33.2071 25.8261 33.3912 25.8261 33.5771C25.8261 33.9919 25.7879 34.3981 25.7149 34.7929ZM25.8261 26.5988V21.6714H26.329C27.7639 21.6714 28.9272 22.7744 28.9272 24.1351C28.9272 25.4957 27.7639 26.5988 26.329 26.5988H25.8261ZM18.4626 27.7457L24.7007 27.7125V29.8662C24.6967 29.8601 24.6927 29.8542 24.6887 29.8481V33.0248H24.6739C24.6916 33.2047 24.7007 33.3869 24.7007 33.5712C24.7007 36.7824 21.956 39.3855 18.5704 39.3855C15.1847 39.3855 12.4401 36.7824 12.4401 33.5712C12.4401 30.3941 15.1267 27.8122 18.4626 27.7577V27.7457Z" fill="black"/>
</g>
<defs>
<clipPath id="clip0_1_7">
<rect width="27.7778" height="30.5556" fill="white" transform="translate(11.1111 10)"/>
</clipPath>
</defs>
</svg>
